<svg xmlns="http://www.w3.org/2000/svg" xmlns:xlink="http://www.w3.org/1999/xlink" width="500" zoomAndPan="magnify" viewBox="0 0 375 374.999991" height="500" preserveAspectRatio="xMidYMid meet" version="1.0"><defs><g/><clipPath id="203807f99c"><path d="M 114 139 L 142 139 L 142 168 L 114 168 Z M 114 139 " clip-rule="nonzero"/></clipPath><clipPath id="c9fde854e8"><path d="M 111.019531 142.242188 L 140.890625 136.144531 L 146.742188 164.792969 L 116.871094 170.890625 Z M 111.019531 142.242188 " clip-rule="nonzero"/></clipPath><clipPath id="9bec2a34b0"><path d="M 111.019531 142.242188 L 140.890625 136.144531 L 146.742188 164.792969 L 116.871094 170.890625 Z M 111.019531 142.242188 " clip-rule="nonzero"/></clipPath><clipPath id="61a01dd094"><path d="M 95 149 L 116 149 L 116 164 L 95 164 Z M 95 149 " clip-rule="nonzero"/></clipPath><clipPath id="66a9b3c5bc"><path d="M 95.304688 149.066406 L 114.488281 147.050781 L 116.375 164.992188 L 97.195312 167.011719 Z M 95.304688 149.066406 " clip-rule="nonzero"/></clipPath><clipPath id="a7ac0d2ef1"><path d="M 114.4375 147.054688 L 95.257812 149.074219 L 97.144531 167.015625 L 116.328125 165 Z M 114.4375 147.054688 " clip-rule="nonzero"/></clipPath><clipPath id="a3bade82b6"><path d="M 114.132812 171.75 L 117.699219 171.75 L 117.699219 174.777344 L 114.132812 174.777344 Z M 114.132812 171.75 " clip-rule="nonzero"/></clipPath><clipPath id="81d5d125a4"><path d="M 117.6875 172.816406 C 116.070312 175.304688 114.640625 174.871094 114.328125 174.371094 C 113.953125 173.8125 114.265625 172.320312 114.761719 171.882812 C 115.261719 171.511719 117.191406 172.070312 117.191406 172.070312 " clip-rule="nonzero"/></clipPath><clipPath id="a6b7afb5df"><path d="M 115.8125 170.382812 L 119.378906 170.382812 L 119.378906 173.375 L 115.8125 173.375 Z M 115.8125 170.382812 " clip-rule="nonzero"/></clipPath><clipPath id="6ec8f1aae6"><path d="M 119.367188 171.449219 C 117.75 173.9375 116.320312 173.5 116.007812 172.941406 C 115.632812 172.445312 115.945312 170.886719 116.441406 170.515625 C 116.941406 170.140625 118.871094 170.703125 118.871094 170.703125 " clip-rule="nonzero"/></clipPath><clipPath id="72016385e5"><path d="M 115.8125 171.53125 L 119.378906 171.53125 L 119.378906 174.558594 L 115.8125 174.558594 Z M 115.8125 171.53125 " clip-rule="nonzero"/></clipPath><clipPath id="5065d94033"><path d="M 119.367188 172.628906 C 117.75 175.121094 116.320312 174.683594 116.007812 174.125 C 115.632812 173.625 115.945312 172.070312 116.441406 171.699219 C 116.941406 171.324219 118.871094 171.820312 118.871094 171.820312 " clip-rule="nonzero"/></clipPath><clipPath id="002b6b8ff7"><path d="M 114 171.269531 L 117.832031 171.269531 L 117.832031 175.070312 L 114 175.070312 Z M 114 171.269531 " clip-rule="nonzero"/></clipPath><clipPath id="bf16405fb1"><path d="M 115.882812 175.058594 C 114.015625 173.8125 113.953125 172.941406 114.140625 172.445312 C 114.328125 172.007812 114.949219 171.449219 115.449219 171.324219 C 115.945312 171.199219 116.753906 171.449219 117.128906 171.820312 C 117.5 172.132812 117.8125 172.941406 117.6875 173.4375 C 117.625 174 117.128906 174.621094 116.628906 174.871094 C 116.195312 175.058594 115.324219 175.058594 114.886719 174.746094 C 114.453125 174.496094 114.078125 173.75 114.015625 173.253906 C 113.953125 172.878906 114.078125 172.445312 114.328125 172.132812 C 114.640625 171.757812 115.324219 171.324219 115.882812 171.324219 C 116.382812 171.261719 117.128906 171.636719 117.4375 172.007812 C 117.75 172.382812 117.875 172.878906 117.8125 173.316406 C 117.8125 173.6875 117.5625 174.25 117.253906 174.496094 C 116.941406 174.808594 116.007812 175.058594 116.007812 175.058594 " clip-rule="nonzero"/></clipPath><clipPath id="bfec943a19"><path d="M 113.945312 171.53125 L 117.511719 171.53125 L 117.511719 174.558594 L 113.945312 174.558594 Z M 113.945312 171.53125 " clip-rule="nonzero"/></clipPath><clipPath id="ecbb83701b"><path d="M 117.5 172.628906 C 115.882812 175.121094 114.390625 174.683594 114.078125 174.125 C 113.769531 173.625 114.078125 172.070312 114.515625 171.699219 C 115.011719 171.324219 117.003906 171.820312 117.003906 171.820312 " clip-rule="nonzero"/></clipPath><clipPath id="d55e1b12e2"><path d="M 113.808594 171.488281 L 117.578125 171.488281 L 117.578125 175.328125 L 113.808594 175.328125 Z M 113.808594 171.488281 " clip-rule="nonzero"/></clipPath><clipPath id="30d7ade1ef"><path d="M 117.5625 173.4375 C 116.320312 175.242188 115.449219 175.367188 115.011719 175.179688 C 114.515625 174.996094 113.953125 174.308594 113.832031 173.8125 C 113.769531 173.316406 113.953125 172.507812 114.328125 172.132812 C 114.703125 171.757812 115.511719 171.511719 116.007812 171.574219 C 116.503906 171.636719 117.191406 172.195312 117.375 172.628906 C 117.625 173.128906 117.5625 173.9375 117.3125 174.371094 C 117.003906 174.808594 116.257812 175.242188 115.757812 175.304688 C 115.386719 175.367188 114.949219 175.242188 114.640625 174.996094 C 114.265625 174.683594 113.832031 173.9375 113.832031 173.4375 C 113.769531 173.003906 113.953125 172.507812 114.203125 172.132812 C 114.515625 171.820312 114.949219 171.511719 115.386719 171.511719 C 115.882812 171.449219 116.691406 171.699219 117.003906 172.007812 C 117.375 172.320312 117.5625 173.253906 117.5625 173.253906 " clip-rule="nonzero"/></clipPath><clipPath id="3b1131465a"><path d="M 109.339844 166.832031 L 122.550781 166.832031 L 122.550781 180.046875 L 109.339844 180.046875 Z M 109.339844 166.832031 " clip-rule="nonzero"/></clipPath><clipPath id="37108f6d1a"><path d="M 115.945312 166.832031 C 112.296875 166.832031 109.339844 169.789062 109.339844 173.4375 C 109.339844 177.085938 112.296875 180.046875 115.945312 180.046875 C 119.59375 180.046875 122.550781 177.085938 122.550781 173.4375 C 122.550781 169.789062 119.59375 166.832031 115.945312 166.832031 Z M 115.945312 166.832031 " clip-rule="nonzero"/></clipPath></defs><g fill="#ffffff" fill-opacity="1"><g transform="translate(76.682299, 217.648124)"><g><path d="M 15.453125 -51.390625 L 15.453125 -10.28125 L 33.140625 -10.28125 L 33.140625 0 L 3.734375 0 L 3.734375 -51.390625 Z M 15.453125 -51.390625 "/></g></g></g><g fill="#ffffff" fill-opacity="1"><g transform="translate(106.582677, 217.648124)"><g><path d="M 4.796875 -49.765625 C 6.085938 -51.054688 7.625 -51.703125 9.40625 -51.703125 C 11.1875 -51.703125 12.722656 -51.054688 14.015625 -49.765625 C 15.304688 -48.484375 15.953125 -46.945312 15.953125 -45.15625 C 15.953125 -43.375 15.304688 -41.835938 14.015625 -40.546875 C 12.722656 -39.265625 11.1875 -38.625 9.40625 -38.625 C 7.625 -38.625 6.085938 -39.265625 4.796875 -40.546875 C 3.503906 -41.835938 2.859375 -43.375 2.859375 -45.15625 C 2.859375 -46.945312 3.503906 -48.484375 4.796875 -49.765625 Z M 3.734375 -31.953125 L 3.734375 0 L 14.765625 0 L 14.765625 -31.953125 Z M 3.734375 -31.953125 "/></g></g></g><g fill="#ffffff" fill-opacity="1"><g transform="translate(120.099972, 217.648124)"><g><path d="M 6.75 -3.796875 C 3.207031 -6.953125 1.4375 -11 1.4375 -15.9375 C 1.4375 -20.882812 3.28125 -24.945312 6.96875 -28.125 C 10.664062 -31.300781 15.238281 -32.890625 20.6875 -32.890625 C 26.039062 -32.890625 30.554688 -31.289062 34.234375 -28.09375 C 37.910156 -24.894531 39.75 -20.84375 39.75 -15.9375 C 39.75 -11.039062 37.953125 -7.003906 34.359375 -3.828125 C 30.765625 -0.648438 26.207031 0.9375 20.6875 0.9375 C 14.945312 0.9375 10.300781 -0.640625 6.75 -3.796875 Z M 15.28125 -21.359375 C 13.851562 -19.953125 13.140625 -18.144531 13.140625 -15.9375 C 13.140625 -13.738281 13.820312 -11.941406 15.1875 -10.546875 C 16.5625 -9.160156 18.375 -8.46875 20.625 -8.46875 C 22.78125 -8.46875 24.550781 -9.171875 25.9375 -10.578125 C 27.332031 -11.992188 28.03125 -13.785156 28.03125 -15.953125 C 28.03125 -18.148438 27.3125 -19.953125 25.875 -21.359375 C 24.445312 -22.773438 22.695312 -23.484375 20.625 -23.484375 C 18.5 -23.484375 16.71875 -22.773438 15.28125 -21.359375 Z M 15.28125 -21.359375 "/></g></g></g><g fill="#ffffff" fill-opacity="1"><g transform="translate(155.980496, 217.648124)"><g/></g></g><g fill="#ffffff" fill-opacity="1"><g transform="translate(167.691289, 217.648124)"><g><path d="M 0.5 -41.109375 L 0.5 -51.390625 L 36.625 -51.390625 L 36.625 -41.109375 L 24.421875 -41.109375 L 24.421875 0 L 12.703125 0 L 12.703125 -41.109375 Z M 0.5 -41.109375 "/></g></g></g><g fill="#ffffff" fill-opacity="1"><g transform="translate(199.522754, 217.648124)"><g><path d="M 36.0625 -14.453125 L 12.890625 -14.453125 C 12.890625 -12.210938 13.613281 -10.550781 15.0625 -9.46875 C 16.519531 -8.382812 18.101562 -7.84375 19.8125 -7.84375 C 21.59375 -7.84375 23.003906 -8.082031 24.046875 -8.5625 C 25.085938 -9.039062 26.269531 -9.988281 27.59375 -11.40625 L 35.578125 -7.40625 C 32.253906 -1.84375 26.726562 0.9375 19 0.9375 C 14.1875 0.9375 10.054688 -0.710938 6.609375 -4.015625 C 3.160156 -7.316406 1.4375 -11.289062 1.4375 -15.9375 C 1.4375 -20.59375 3.160156 -24.582031 6.609375 -27.90625 C 10.054688 -31.226562 14.1875 -32.890625 19 -32.890625 C 24.0625 -32.890625 28.179688 -31.425781 31.359375 -28.5 C 34.535156 -25.570312 36.125 -21.390625 36.125 -15.953125 C 36.125 -15.203125 36.101562 -14.703125 36.0625 -14.453125 Z M 13.203125 -20.5625 L 25.359375 -20.5625 C 25.109375 -22.21875 24.453125 -23.492188 23.390625 -24.390625 C 22.328125 -25.285156 20.96875 -25.734375 19.3125 -25.734375 C 17.488281 -25.734375 16.035156 -25.253906 14.953125 -24.296875 C 13.867188 -23.335938 13.285156 -22.09375 13.203125 -20.5625 Z M 13.203125 -20.5625 "/></g></g></g><g fill="#ffffff" fill-opacity="1"><g transform="translate(231.790275, 217.648124)"><g><path d="M 20.75 -23.859375 C 18.664062 -23.859375 16.875 -23.085938 15.375 -21.546875 C 13.882812 -20.015625 13.140625 -18.171875 13.140625 -16.015625 C 13.140625 -13.804688 13.882812 -11.929688 15.375 -10.390625 C 16.875 -8.859375 18.664062 -8.09375 20.75 -8.09375 C 21.738281 -8.09375 22.679688 -8.21875 23.578125 -8.46875 C 24.472656 -8.71875 25.128906 -8.96875 25.546875 -9.21875 L 26.109375 -9.59375 L 29.84375 -1.9375 C 29.550781 -1.726562 29.144531 -1.46875 28.625 -1.15625 C 28.101562 -0.84375 26.914062 -0.414062 25.0625 0.125 C 23.21875 0.664062 21.238281 0.9375 19.125 0.9375 C 14.425781 0.9375 10.300781 -0.710938 6.75 -4.015625 C 3.207031 -7.316406 1.4375 -11.273438 1.4375 -15.890625 C 1.4375 -20.535156 3.207031 -24.53125 6.75 -27.875 C 10.300781 -31.21875 14.425781 -32.890625 19.125 -32.890625 C 21.238281 -32.890625 23.1875 -32.640625 24.96875 -32.140625 C 26.757812 -31.640625 28.03125 -31.144531 28.78125 -30.65625 L 29.84375 -29.90625 L 26.109375 -22.359375 C 24.734375 -23.359375 22.945312 -23.859375 20.75 -23.859375 Z M 20.75 -23.859375 "/></g></g></g><g fill="#ffffff" fill-opacity="1"><g transform="translate(257.08097, 217.648124)"><g><path d="M 3.734375 0 L 3.734375 -53.578125 L 14.765625 -53.578125 L 14.765625 -28.59375 L 14.890625 -28.59375 C 17.753906 -31.457031 20.804688 -32.890625 24.046875 -32.890625 C 25.617188 -32.890625 27.1875 -32.679688 28.75 -32.265625 C 30.3125 -31.847656 31.804688 -31.203125 33.234375 -30.328125 C 34.671875 -29.460938 35.832031 -28.226562 36.71875 -26.625 C 37.613281 -25.03125 38.0625 -23.175781 38.0625 -21.0625 L 38.0625 0 L 27.03125 0 L 27.03125 -18.0625 C 27.03125 -19.726562 26.5 -21.179688 25.4375 -22.421875 C 24.382812 -23.671875 23.007812 -24.296875 21.3125 -24.296875 C 19.644531 -24.296875 18.132812 -23.648438 16.78125 -22.359375 C 15.4375 -21.078125 14.765625 -19.644531 14.765625 -18.0625 L 14.765625 0 Z M 3.734375 0 "/></g></g></g><g clip-path="url(#203807f99c)"><g clip-path="url(#c9fde854e8)"><g clip-path="url(#9bec2a34b0)"><path fill="#00bf63" d="M 135.3125 142.550781 C 121.179688 145.371094 114.949219 153.507812 117.085938 167.285156 C 117.113281 167.460938 116.863281 167.519531 116.804688 167.355469 C 115.265625 163.027344 114.558594 158.9375 114.96875 155.175781 C 116.320312 142.757812 130.253906 138.316406 141.117188 139.941406 C 141.65625 140.023438 141.890625 140.652344 141.542969 141.074219 C 134.945312 148.988281 139.53125 165.972656 118.816406 162.4375 C 119.914062 152.511719 124.878906 145.484375 135.3125 142.550781 " fill-opacity="1" fill-rule="evenodd"/></g></g></g><g clip-path="url(#61a01dd094)"><g clip-path="url(#66a9b3c5bc)"><g clip-path="url(#a7ac0d2ef1)"><path fill="#00bf63" d="M 99.917969 151.847656 C 108.933594 150.859375 114.21875 154.5625 115.550781 163.234375 C 115.566406 163.34375 115.730469 163.335938 115.734375 163.222656 C 115.835938 160.332031 115.484375 157.746094 114.523438 155.566406 C 111.355469 148.367188 102.152344 148.347656 95.941406 151.386719 C 95.632812 151.535156 95.609375 151.957031 95.898438 152.144531 C 101.359375 155.640625 101.832031 166.707031 113.589844 160.652344 C 111.050781 154.902344 106.738281 151.628906 99.917969 151.847656 " fill-opacity="1" fill-rule="evenodd"/></g></g></g><g clip-path="url(#a3bade82b6)"><g clip-path="url(#81d5d125a4)"><path fill="#e7191f" d="M 111.839844 169.394531 L 120.246094 169.394531 L 120.246094 177.546875 L 111.839844 177.546875 Z M 111.839844 169.394531 " fill-opacity="1" fill-rule="nonzero"/></g></g><g clip-path="url(#a6b7afb5df)"><g clip-path="url(#6ec8f1aae6)"><path fill="#e7191f" d="M 113.519531 168.027344 L 121.925781 168.027344 L 121.925781 176.175781 L 113.519531 176.175781 Z M 113.519531 168.027344 " fill-opacity="1" fill-rule="nonzero"/><path fill="#e7191f" d="M 113.519531 168.027344 L 121.925781 168.027344 L 121.925781 176.175781 L 113.519531 176.175781 Z M 113.519531 168.027344 " fill-opacity="1" fill-rule="nonzero"/></g></g><g clip-path="url(#72016385e5)"><g clip-path="url(#5065d94033)"><path fill="#e7191f" d="M 113.519531 169.207031 L 121.925781 169.207031 L 121.925781 177.359375 L 113.519531 177.359375 Z M 113.519531 169.207031 " fill-opacity="1" fill-rule="nonzero"/><path fill="#e7191f" d="M 113.519531 169.207031 L 121.925781 169.207031 L 121.925781 177.359375 L 113.519531 177.359375 Z M 113.519531 169.207031 " fill-opacity="1" fill-rule="nonzero"/><path fill="#e7191f" d="M 113.519531 169.207031 L 121.925781 169.207031 L 121.925781 177.359375 L 113.519531 177.359375 Z M 113.519531 169.207031 " fill-opacity="1" fill-rule="nonzero"/><path fill="#e7191f" d="M 113.519531 169.207031 L 121.925781 169.207031 L 121.925781 177.359375 L 113.519531 177.359375 Z M 113.519531 169.207031 " fill-opacity="1" fill-rule="nonzero"/><path fill="#e7191f" d="M 113.519531 169.207031 L 121.925781 169.207031 L 121.925781 177.359375 L 113.519531 177.359375 Z M 113.519531 169.207031 " fill-opacity="1" fill-rule="nonzero"/></g></g><g clip-path="url(#002b6b8ff7)"><g clip-path="url(#bf16405fb1)"><path fill="#e7191f" d="M 111.527344 168.835938 L 120.371094 168.835938 L 120.371094 177.609375 L 111.527344 177.609375 Z M 111.527344 168.835938 " fill-opacity="1" fill-rule="nonzero"/></g></g><g clip-path="url(#bfec943a19)"><g clip-path="url(#ecbb83701b)"><path fill="#e7191f" d="M 111.589844 169.207031 L 119.996094 169.207031 L 119.996094 177.359375 L 111.589844 177.359375 Z M 111.589844 169.207031 " fill-opacity="1" fill-rule="nonzero"/><path fill="#e7191f" d="M 111.589844 169.207031 L 119.996094 169.207031 L 119.996094 177.359375 L 111.589844 177.359375 Z M 111.589844 169.207031 " fill-opacity="1" fill-rule="nonzero"/><path fill="#e7191f" d="M 111.589844 169.207031 L 119.996094 169.207031 L 119.996094 177.359375 L 111.589844 177.359375 Z M 111.589844 169.207031 " fill-opacity="1" fill-rule="nonzero"/><path fill="#e7191f" d="M 111.589844 169.207031 L 119.996094 169.207031 L 119.996094 177.359375 L 111.589844 177.359375 Z M 111.589844 169.207031 " fill-opacity="1" fill-rule="nonzero"/></g></g><g clip-path="url(#d55e1b12e2)"><g clip-path="url(#30d7ade1ef)"><path fill="#e7191f" d="M 111.339844 169.023438 L 120.113281 169.023438 L 120.113281 177.863281 L 111.339844 177.863281 Z M 111.339844 169.023438 " fill-opacity="1" fill-rule="nonzero"/></g></g><g clip-path="url(#3b1131465a)"><g clip-path="url(#37108f6d1a)"><path fill="#a20612" d="M 109.339844 166.832031 L 122.550781 166.832031 L 122.550781 180.046875 L 109.339844 180.046875 Z M 109.339844 166.832031 " fill-opacity="1" fill-rule="nonzero"/></g></g></svg>