<svg xmlns="http://www.w3.org/2000/svg" xmlns:xlink="http://www.w3.org/1999/xlink" width="500" zoomAndPan="magnify" viewBox="0 0 375 374.999991" height="500" preserveAspectRatio="xMidYMid meet" version="1.0"><defs><clipPath id="893e1f05cc"><path d="M 159 43 L 356 43 L 356 247 L 159 247 Z M 159 43 " clip-rule="nonzero"/></clipPath><clipPath id="3a05aa3a9a"><path d="M 131.761719 63.054688 L 350.007812 18.488281 L 392.175781 224.976562 L 173.929688 269.542969 Z M 131.761719 63.054688 " clip-rule="nonzero"/></clipPath><clipPath id="996db58a0b"><path d="M 131.761719 63.054688 L 350.007812 18.488281 L 392.175781 224.976562 L 173.929688 269.542969 Z M 131.761719 63.054688 " clip-rule="nonzero"/></clipPath><clipPath id="60f8cbd929"><path d="M 20 115 L 167 115 L 167 217 L 20 217 Z M 20 115 " clip-rule="nonzero"/></clipPath><clipPath id="b23c1cf29e"><path d="M 17.25 112.785156 L 156.730469 98.113281 L 170.617188 230.136719 L 31.136719 244.808594 Z M 17.25 112.785156 " clip-rule="nonzero"/></clipPath><clipPath id="6cb9bddb8a"><path d="M 156.71875 98.117188 L 17.238281 112.789062 L 31.125 244.808594 L 170.605469 230.136719 Z M 156.71875 98.117188 " clip-rule="nonzero"/></clipPath><clipPath id="bbf5afe027"><path d="M 154.433594 278.078125 L 180.417969 278.078125 L 180.417969 300 L 154.433594 300 Z M 154.433594 278.078125 " clip-rule="nonzero"/></clipPath><clipPath id="362b8a9b02"><path d="M 180.34375 285.84375 C 168.558594 303.980469 158.132812 300.804688 155.863281 297.179688 C 153.144531 293.097656 155.410156 282.21875 159.039062 279.042969 C 162.664062 276.324219 176.71875 280.40625 176.71875 280.40625 " clip-rule="nonzero"/></clipPath><clipPath id="d3c8d27552"><path d="M 166.675781 268.105469 L 192.65625 268.105469 L 192.65625 289.910156 L 166.675781 289.910156 Z M 166.675781 268.105469 " clip-rule="nonzero"/></clipPath><clipPath id="36885c0d6a"><path d="M 192.585938 275.871094 C 180.800781 294.003906 170.371094 290.832031 168.105469 286.75 C 165.382812 283.125 167.652344 271.789062 171.277344 269.070312 C 174.90625 266.351562 188.960938 270.429688 188.960938 270.429688 " clip-rule="nonzero"/></clipPath><clipPath id="110d986257"><path d="M 166.675781 276.484375 L 192.65625 276.484375 L 192.65625 298.523438 L 166.675781 298.523438 Z M 166.675781 276.484375 " clip-rule="nonzero"/></clipPath><clipPath id="2783285916"><path d="M 192.585938 284.484375 C 180.800781 302.621094 170.371094 299.445312 168.105469 295.367188 C 165.382812 291.738281 167.652344 280.40625 171.277344 277.683594 C 174.90625 274.964844 188.960938 278.589844 188.960938 278.589844 " clip-rule="nonzero"/></clipPath><clipPath id="0035f34f2b"><path d="M 153.441406 274.558594 L 181.40625 274.558594 L 181.40625 302.277344 L 153.441406 302.277344 Z M 153.441406 274.558594 " clip-rule="nonzero"/></clipPath><clipPath id="888e81e3ff"><path d="M 167.199219 302.167969 C 153.597656 293.097656 153.144531 286.75 154.503906 283.125 C 155.863281 279.953125 160.398438 275.871094 164.023438 274.964844 C 167.652344 274.058594 173.546875 275.871094 176.265625 278.589844 C 178.984375 280.859375 181.253906 286.75 180.34375 290.378906 C 179.890625 294.457031 176.265625 298.992188 172.636719 300.804688 C 169.464844 302.167969 163.117188 302.167969 159.945312 299.898438 C 156.769531 298.085938 154.050781 292.644531 153.597656 289.019531 C 153.144531 286.296875 154.050781 283.125 155.863281 280.859375 C 158.132812 278.136719 163.117188 274.964844 167.199219 274.964844 C 170.824219 274.511719 176.265625 277.230469 178.53125 279.953125 C 180.800781 282.671875 181.707031 286.296875 181.253906 289.472656 C 181.253906 292.191406 179.4375 296.273438 177.171875 298.085938 C 174.90625 300.351562 168.105469 302.167969 168.105469 302.167969 " clip-rule="nonzero"/></clipPath><clipPath id="7c1d232c86"><path d="M 153.082031 276.484375 L 179 276.484375 L 179 298.523438 L 153.082031 298.523438 Z M 153.082031 276.484375 " clip-rule="nonzero"/></clipPath><clipPath id="1dfccbe9ce"><path d="M 178.984375 284.484375 C 167.199219 302.621094 156.316406 299.445312 154.050781 295.367188 C 151.785156 291.738281 154.050781 280.40625 157.222656 277.683594 C 160.851562 274.964844 175.359375 278.589844 175.359375 278.589844 " clip-rule="nonzero"/></clipPath><clipPath id="3f3b31e944"><path d="M 152.082031 276.167969 L 179.546875 276.167969 L 179.546875 304.136719 L 152.082031 304.136719 Z M 152.082031 276.167969 " clip-rule="nonzero"/></clipPath><clipPath id="d9811f3e12"><path d="M 179.4375 290.378906 C 170.371094 303.527344 164.023438 304.433594 160.851562 303.074219 C 157.222656 301.710938 153.144531 296.726562 152.238281 293.097656 C 151.785156 289.472656 153.144531 283.578125 155.863281 280.859375 C 158.585938 278.136719 164.476562 276.324219 168.105469 276.777344 C 171.730469 277.230469 176.71875 281.3125 178.078125 284.484375 C 179.890625 288.113281 179.4375 294.003906 177.625 297.179688 C 175.359375 300.351562 169.917969 303.527344 166.292969 303.980469 C 163.570312 304.433594 160.398438 303.527344 158.132812 301.710938 C 155.410156 299.445312 152.238281 294.003906 152.238281 290.378906 C 151.785156 287.207031 153.144531 283.578125 154.957031 280.859375 C 157.222656 278.589844 160.398438 276.324219 163.570312 276.324219 C 167.199219 275.871094 173.09375 277.683594 175.359375 279.953125 C 178.078125 282.21875 179.4375 289.019531 179.4375 289.019531 " clip-rule="nonzero"/></clipPath><clipPath id="5bce5c32c1"><path d="M 119.515625 242.242188 L 215.789062 242.242188 L 215.789062 338.515625 L 119.515625 338.515625 Z M 119.515625 242.242188 " clip-rule="nonzero"/></clipPath><clipPath id="660815e6ec"><path d="M 167.652344 242.242188 C 141.066406 242.242188 119.515625 263.792969 119.515625 290.378906 C 119.515625 316.964844 141.066406 338.515625 167.652344 338.515625 C 194.238281 338.515625 215.789062 316.964844 215.789062 290.378906 C 215.789062 263.792969 194.238281 242.242188 167.652344 242.242188 Z M 167.652344 242.242188 " clip-rule="nonzero"/></clipPath></defs><g clip-path="url(#893e1f05cc)"><g clip-path="url(#3a05aa3a9a)"><g clip-path="url(#996db58a0b)"><path fill="#00bf63" d="M 308.808594 65.300781 C 205.8125 85.847656 160.382812 145.171875 175.964844 245.589844 C 176.160156 246.851562 174.347656 247.292969 173.917969 246.089844 C 162.691406 214.535156 157.535156 184.738281 160.523438 157.3125 C 170.394531 66.792969 271.945312 34.445312 351.105469 46.292969 C 355.054688 46.882812 356.761719 51.464844 354.207031 54.53125 C 306.128906 112.214844 339.558594 236.023438 188.59375 210.238281 C 196.574219 137.886719 232.769531 86.675781 308.808594 65.300781 " fill-opacity="1" fill-rule="evenodd"/></g></g></g><g clip-path="url(#60f8cbd929)"><g clip-path="url(#b23c1cf29e)"><g clip-path="url(#6cb9bddb8a)"><path fill="#00bf63" d="M 50.875 133.066406 C 116.597656 125.855469 155.125 152.839844 164.832031 216.074219 C 164.953125 216.867188 166.125 216.789062 166.15625 215.984375 C 166.902344 194.914062 164.34375 176.050781 157.34375 160.15625 C 134.238281 107.695312 67.144531 107.550781 21.875 129.6875 C 19.621094 130.789062 19.464844 133.863281 21.578125 135.222656 C 61.386719 160.71875 64.816406 241.382812 150.542969 197.25 C 132.019531 155.335938 100.574219 131.464844 50.875 133.066406 " fill-opacity="1" fill-rule="evenodd"/></g></g></g><g clip-path="url(#bbf5afe027)"><g clip-path="url(#362b8a9b02)"><path fill="#e7191f" d="M 137.730469 260.910156 L 198.976562 260.910156 L 198.976562 320.300781 L 137.730469 320.300781 Z M 137.730469 260.910156 " fill-opacity="1" fill-rule="nonzero"/></g></g><g clip-path="url(#d3c8d27552)"><g clip-path="url(#36885c0d6a)"><path fill="#e7191f" d="M 149.96875 250.9375 L 211.214844 250.9375 L 211.214844 310.328125 L 149.96875 310.328125 Z M 149.96875 250.9375 " fill-opacity="1" fill-rule="nonzero"/><path fill="#e7191f" d="M 149.96875 250.9375 L 211.214844 250.9375 L 211.214844 310.328125 L 149.96875 310.328125 Z M 149.96875 250.9375 " fill-opacity="1" fill-rule="nonzero"/></g></g><g clip-path="url(#110d986257)"><g clip-path="url(#2783285916)"><path fill="#e7191f" d="M 149.96875 259.550781 L 211.214844 259.550781 L 211.214844 318.941406 L 149.96875 318.941406 Z M 149.96875 259.550781 " fill-opacity="1" fill-rule="nonzero"/><path fill="#e7191f" d="M 149.96875 259.550781 L 211.214844 259.550781 L 211.214844 318.941406 L 149.96875 318.941406 Z M 149.96875 259.550781 " fill-opacity="1" fill-rule="nonzero"/><path fill="#e7191f" d="M 149.96875 259.550781 L 211.214844 259.550781 L 211.214844 318.941406 L 149.96875 318.941406 Z M 149.96875 259.550781 " fill-opacity="1" fill-rule="nonzero"/><path fill="#e7191f" d="M 149.96875 259.550781 L 211.214844 259.550781 L 211.214844 318.941406 L 149.96875 318.941406 Z M 149.96875 259.550781 " fill-opacity="1" fill-rule="nonzero"/><path fill="#e7191f" d="M 149.96875 259.550781 L 211.214844 259.550781 L 211.214844 318.941406 L 149.96875 318.941406 Z M 149.96875 259.550781 " fill-opacity="1" fill-rule="nonzero"/></g></g><g clip-path="url(#0035f34f2b)"><g clip-path="url(#888e81e3ff)"><path fill="#e7191f" d="M 135.464844 256.828125 L 199.886719 256.828125 L 199.886719 320.753906 L 135.464844 320.753906 Z M 135.464844 256.828125 " fill-opacity="1" fill-rule="nonzero"/></g></g><g clip-path="url(#7c1d232c86)"><g clip-path="url(#1dfccbe9ce)"><path fill="#e7191f" d="M 135.917969 259.550781 L 197.164062 259.550781 L 197.164062 318.941406 L 135.917969 318.941406 Z M 135.917969 259.550781 " fill-opacity="1" fill-rule="nonzero"/><path fill="#e7191f" d="M 135.917969 259.550781 L 197.164062 259.550781 L 197.164062 318.941406 L 135.917969 318.941406 Z M 135.917969 259.550781 " fill-opacity="1" fill-rule="nonzero"/><path fill="#e7191f" d="M 135.917969 259.550781 L 197.164062 259.550781 L 197.164062 318.941406 L 135.917969 318.941406 Z M 135.917969 259.550781 " fill-opacity="1" fill-rule="nonzero"/><path fill="#e7191f" d="M 135.917969 259.550781 L 197.164062 259.550781 L 197.164062 318.941406 L 135.917969 318.941406 Z M 135.917969 259.550781 " fill-opacity="1" fill-rule="nonzero"/></g></g><g clip-path="url(#3f3b31e944)"><g clip-path="url(#d9811f3e12)"><path fill="#e7191f" d="M 134.101562 258.191406 L 198.027344 258.191406 L 198.027344 322.613281 L 134.101562 322.613281 Z M 134.101562 258.191406 " fill-opacity="1" fill-rule="nonzero"/></g></g><g clip-path="url(#5bce5c32c1)"><g clip-path="url(#660815e6ec)"><path fill="#9334ea" d="M 119.515625 242.242188 L 215.789062 242.242188 L 215.789062 338.515625 L 119.515625 338.515625 Z M 119.515625 242.242188 " fill-opacity="1" fill-rule="nonzero"/></g></g></svg>