<svg xmlns="http://www.w3.org/2000/svg" xmlns:xlink="http://www.w3.org/1999/xlink" width="500" zoomAndPan="magnify" viewBox="0 0 375 149.999998" height="200" preserveAspectRatio="xMidYMid meet" version="1.0"><defs><clipPath id="16ca9fd724"><path d="M 45 15 L 79 15 L 79 50.789062 L 45 50.789062 Z M 45 15 " clip-rule="nonzero"/></clipPath><clipPath id="600579e80a"><path d="M 40.355469 18.4375 L 77.871094 10.777344 L 85.222656 46.757812 L 47.703125 54.417969 Z M 40.355469 18.4375 " clip-rule="nonzero"/></clipPath><clipPath id="15b78a5582"><path d="M 40.355469 18.4375 L 77.871094 10.777344 L 85.222656 46.757812 L 47.703125 54.417969 Z M 40.355469 18.4375 " clip-rule="nonzero"/></clipPath><clipPath id="7e441afc1b"><path d="M 21 27 L 46.609375 27 L 46.609375 45 L 21 45 Z M 21 27 " clip-rule="nonzero"/></clipPath><clipPath id="2bb0f52efa"><path d="M 20.617188 27.007812 L 44.710938 24.476562 L 47.082031 47.011719 L 22.992188 49.546875 Z M 20.617188 27.007812 " clip-rule="nonzero"/></clipPath><clipPath id="6301125ec0"><path d="M 44.648438 24.480469 L 20.558594 27.015625 L 22.925781 49.550781 L 47.023438 47.019531 Z M 44.648438 24.480469 " clip-rule="nonzero"/></clipPath><clipPath id="b0dd327ac9"><path d="M 44.265625 55.496094 L 48.742188 55.496094 L 48.742188 59.300781 L 44.265625 59.300781 Z M 44.265625 55.496094 " clip-rule="nonzero"/></clipPath><clipPath id="c2b81c8b57"><path d="M 48.730469 56.835938 C 46.699219 59.960938 44.902344 59.417969 44.507812 58.789062 C 44.039062 58.089844 44.429688 56.214844 45.054688 55.664062 C 45.683594 55.199219 48.105469 55.898438 48.105469 55.898438 " clip-rule="nonzero"/></clipPath><clipPath id="e1f16fa6a0"><path d="M 46.375 53.78125 L 50.851562 53.78125 L 50.851562 57.539062 L 46.375 57.539062 Z M 46.375 53.78125 " clip-rule="nonzero"/></clipPath><clipPath id="a478093be7"><path d="M 50.839844 55.121094 C 48.808594 58.246094 47.011719 57.695312 46.621094 56.992188 C 46.148438 56.371094 46.539062 54.414062 47.164062 53.945312 C 47.792969 53.476562 50.214844 54.183594 50.214844 54.183594 " clip-rule="nonzero"/></clipPath><clipPath id="0d705634bd"><path d="M 46.375 55.222656 L 50.851562 55.222656 L 50.851562 59.023438 L 46.375 59.023438 Z M 46.375 55.222656 " clip-rule="nonzero"/></clipPath><clipPath id="74d9ddc19c"><path d="M 50.839844 56.601562 C 48.808594 59.730469 47.011719 59.183594 46.621094 58.480469 C 46.148438 57.851562 46.539062 55.898438 47.164062 55.433594 C 47.792969 54.960938 50.214844 55.585938 50.214844 55.585938 " clip-rule="nonzero"/></clipPath><clipPath id="a83f30b00f"><path d="M 44.097656 54.894531 L 48.910156 54.894531 L 48.910156 59.667969 L 44.097656 59.667969 Z M 44.097656 54.894531 " clip-rule="nonzero"/></clipPath><clipPath id="2412575aa7"><path d="M 46.460938 59.652344 C 44.117188 58.089844 44.039062 56.992188 44.273438 56.371094 C 44.507812 55.820312 45.289062 55.121094 45.917969 54.960938 C 46.539062 54.804688 47.554688 55.121094 48.027344 55.585938 C 48.492188 55.976562 48.886719 56.992188 48.730469 57.617188 C 48.652344 58.324219 48.027344 59.105469 47.398438 59.417969 C 46.855469 59.652344 45.761719 59.652344 45.210938 59.261719 C 44.667969 58.945312 44.195312 58.007812 44.117188 57.386719 C 44.039062 56.914062 44.195312 56.371094 44.507812 55.976562 C 44.902344 55.507812 45.761719 54.960938 46.460938 54.960938 C 47.089844 54.882812 48.027344 55.355469 48.414062 55.820312 C 48.808594 56.292969 48.964844 56.914062 48.886719 57.464844 C 48.886719 57.929688 48.570312 58.636719 48.183594 58.945312 C 47.792969 59.339844 46.621094 59.652344 46.621094 59.652344 " clip-rule="nonzero"/></clipPath><clipPath id="e55bedd453"><path d="M 44.027344 55.222656 L 48.507812 55.222656 L 48.507812 59.023438 L 44.027344 59.023438 Z M 44.027344 55.222656 " clip-rule="nonzero"/></clipPath><clipPath id="cc78b8278a"><path d="M 48.492188 56.601562 C 46.460938 59.730469 44.589844 59.183594 44.195312 58.480469 C 43.808594 57.851562 44.195312 55.898438 44.746094 55.433594 C 45.367188 54.960938 47.871094 55.585938 47.871094 55.585938 " clip-rule="nonzero"/></clipPath><clipPath id="8ef4250c35"><path d="M 43.855469 55.167969 L 48.589844 55.167969 L 48.589844 59.992188 L 43.855469 59.992188 Z M 43.855469 55.167969 " clip-rule="nonzero"/></clipPath><clipPath id="09a02ba38a"><path d="M 48.570312 57.617188 C 47.011719 59.882812 45.917969 60.039062 45.367188 59.804688 C 44.746094 59.574219 44.039062 58.710938 43.886719 58.089844 C 43.808594 57.464844 44.039062 56.449219 44.507812 55.976562 C 44.980469 55.507812 45.996094 55.199219 46.621094 55.277344 C 47.242188 55.355469 48.105469 56.058594 48.335938 56.601562 C 48.652344 57.230469 48.570312 58.246094 48.257812 58.789062 C 47.871094 59.339844 46.933594 59.882812 46.304688 59.960938 C 45.839844 60.039062 45.289062 59.882812 44.902344 59.574219 C 44.429688 59.183594 43.886719 58.246094 43.886719 57.617188 C 43.808594 57.074219 44.039062 56.449219 44.351562 55.976562 C 44.746094 55.585938 45.289062 55.199219 45.839844 55.199219 C 46.460938 55.121094 47.476562 55.433594 47.871094 55.820312 C 48.335938 56.214844 48.570312 57.386719 48.570312 57.386719 " clip-rule="nonzero"/></clipPath><clipPath id="d1460308f5"><path d="M 38.246094 49.320312 L 54.835938 49.320312 L 54.835938 65.917969 L 38.246094 65.917969 Z M 38.246094 49.320312 " clip-rule="nonzero"/></clipPath><clipPath id="cc7b5535b7"><path d="M 46.539062 49.320312 C 41.957031 49.320312 38.246094 53.035156 38.246094 57.617188 C 38.246094 62.199219 41.957031 65.917969 46.539062 65.917969 C 51.125 65.917969 54.835938 62.199219 54.835938 57.617188 C 54.835938 53.035156 51.125 49.320312 46.539062 49.320312 Z M 46.539062 49.320312 " clip-rule="nonzero"/></clipPath></defs><path fill="#ffffff" d="M 16.636719 48.597656 L 16.636719 100.230469 L 38.851562 100.230469 L 38.851562 113.144531 L 1.917969 113.144531 L 1.917969 48.597656 Z M 16.636719 48.597656 " fill-opacity="1" fill-rule="nonzero"/><path fill="#ffffff" d="M 40.804688 50.640625 C 42.425781 49.019531 44.359375 48.207031 46.59375 48.207031 C 48.832031 48.207031 50.761719 49.019531 52.386719 50.640625 C 54.003906 52.25 54.820312 54.183594 54.820312 56.429688 C 54.820312 58.667969 54.003906 60.601562 52.386719 62.21875 C 50.761719 63.828125 48.832031 64.632812 46.59375 64.632812 C 44.359375 64.632812 42.425781 63.828125 40.804688 62.21875 C 39.183594 60.601562 38.371094 58.667969 38.371094 56.429688 C 38.371094 54.183594 39.183594 52.25 40.804688 50.640625 Z M 39.472656 73.011719 L 39.472656 113.144531 L 53.328125 113.144531 L 53.328125 73.011719 Z M 39.472656 73.011719 " fill-opacity="1" fill-rule="nonzero"/><path fill="#ffffff" d="M 60.238281 108.375 C 55.785156 104.414062 53.566406 99.328125 53.566406 93.128906 C 53.566406 86.917969 55.878906 81.8125 60.511719 77.820312 C 65.152344 73.832031 70.898438 71.835938 77.742188 71.835938 C 84.464844 71.835938 90.136719 73.847656 94.757812 77.859375 C 99.375 81.878906 101.683594 86.964844 101.683594 93.128906 C 101.683594 99.28125 99.429688 104.347656 94.914062 108.335938 C 90.402344 112.332031 84.675781 114.324219 77.742188 114.324219 C 70.53125 114.324219 64.695312 112.339844 60.238281 108.375 Z M 70.953125 86.316406 C 69.15625 88.085938 68.261719 90.355469 68.261719 93.128906 C 68.261719 95.890625 69.117188 98.148438 70.835938 99.898438 C 72.5625 101.640625 74.839844 102.507812 77.664062 102.507812 C 80.371094 102.507812 82.59375 101.625 84.335938 99.859375 C 86.089844 98.082031 86.964844 95.832031 86.964844 93.109375 C 86.964844 90.351562 86.0625 88.085938 84.257812 86.316406 C 82.460938 84.542969 80.265625 83.648438 77.664062 83.648438 C 74.996094 83.648438 72.757812 84.542969 70.953125 86.316406 Z M 70.953125 86.316406 " fill-opacity="1" fill-rule="nonzero"/><path fill="#ffffff" d="M 112.160156 61.511719 L 112.160156 48.597656 L 157.535156 48.597656 L 157.535156 61.511719 L 142.207031 61.511719 L 142.207031 113.144531 L 127.488281 113.144531 L 127.488281 61.511719 Z M 112.160156 61.511719 " fill-opacity="1" fill-rule="nonzero"/><path fill="#ffffff" d="M 196.808594 94.992188 L 167.703125 94.992188 C 167.703125 97.808594 168.613281 99.894531 170.433594 101.253906 C 172.261719 102.617188 174.25 103.292969 176.398438 103.292969 C 178.636719 103.292969 180.40625 102.996094 181.71875 102.390625 C 183.023438 101.792969 184.507812 100.601562 186.171875 98.820312 L 196.199219 103.84375 C 192.023438 110.828125 185.082031 114.324219 175.378906 114.324219 C 169.332031 114.324219 164.144531 112.253906 159.816406 108.101562 C 155.484375 103.957031 153.320312 98.964844 153.320312 93.128906 C 153.320312 87.28125 155.484375 82.269531 159.816406 78.09375 C 164.144531 73.925781 169.332031 71.835938 175.378906 71.835938 C 181.738281 71.835938 186.90625 73.675781 190.902344 77.351562 C 194.890625 81.03125 196.886719 86.277344 196.886719 93.109375 C 196.886719 94.050781 196.859375 94.679688 196.808594 94.992188 Z M 168.097656 87.320312 L 183.367188 87.320312 C 183.050781 85.238281 182.226562 83.640625 180.894531 82.511719 C 179.558594 81.386719 177.851562 80.824219 175.769531 80.824219 C 173.480469 80.824219 171.652344 81.425781 170.296875 82.628906 C 168.929688 83.835938 168.199219 85.394531 168.097656 87.320312 Z M 168.097656 87.320312 " fill-opacity="1" fill-rule="nonzero"/><path fill="#ffffff" d="M 218.105469 83.179688 C 215.484375 83.179688 213.238281 84.148438 211.351562 86.082031 C 209.480469 88.007812 208.546875 90.320312 208.546875 93.03125 C 208.546875 95.808594 209.480469 98.160156 211.351562 100.09375 C 213.238281 102.019531 215.484375 102.980469 218.105469 102.980469 C 219.34375 102.980469 220.527344 102.824219 221.65625 102.507812 C 222.78125 102.195312 223.605469 101.882812 224.128906 101.566406 L 224.835938 101.097656 L 229.527344 110.710938 C 229.15625 110.976562 228.648438 111.300781 227.996094 111.695312 C 227.335938 112.085938 225.847656 112.625 223.519531 113.300781 C 221.203125 113.980469 218.71875 114.324219 216.0625 114.324219 C 210.160156 114.324219 204.980469 112.253906 200.519531 108.101562 C 196.070312 103.957031 193.847656 98.984375 193.847656 93.1875 C 193.847656 87.351562 196.070312 82.335938 200.519531 78.132812 C 204.980469 73.933594 210.160156 71.835938 216.0625 71.835938 C 218.71875 71.835938 221.164062 72.148438 223.402344 72.777344 C 225.648438 73.40625 227.25 74.027344 228.191406 74.640625 L 229.527344 75.582031 L 224.835938 85.0625 C 223.109375 83.804688 220.859375 83.179688 218.105469 83.179688 Z M 218.105469 83.179688 " fill-opacity="1" fill-rule="nonzero"/><path fill="#ffffff" d="M 228.496094 113.144531 L 228.496094 45.851562 L 242.351562 45.851562 L 242.351562 77.230469 L 242.507812 77.230469 C 246.105469 73.636719 249.9375 71.835938 254.011719 71.835938 C 255.980469 71.835938 257.953125 72.101562 259.917969 72.621094 C 261.878906 73.144531 263.753906 73.953125 265.550781 75.054688 C 267.355469 76.144531 268.8125 77.691406 269.925781 79.703125 C 271.050781 81.707031 271.613281 84.035156 271.613281 86.691406 L 271.613281 113.144531 L 257.757812 113.144531 L 257.757812 90.460938 C 257.757812 88.367188 257.089844 86.542969 255.757812 84.984375 C 254.433594 83.414062 252.703125 82.628906 250.574219 82.628906 C 248.480469 82.628906 246.582031 83.441406 244.882812 85.0625 C 243.195312 86.671875 242.351562 88.472656 242.351562 90.460938 L 242.351562 113.144531 Z M 228.496094 113.144531 " fill-opacity="1" fill-rule="nonzero"/><g clip-path="url(#16ca9fd724)"><g clip-path="url(#600579e80a)"><g clip-path="url(#15b78a5582)"><path fill="#00bf63" d="M 70.867188 18.824219 C 53.113281 22.367188 45.289062 32.585938 47.972656 49.890625 C 48.007812 50.109375 47.695312 50.183594 47.621094 49.976562 C 45.6875 44.542969 44.800781 39.40625 45.3125 34.679688 C 47.011719 19.082031 64.511719 13.503906 78.15625 15.546875 C 78.832031 15.648438 79.128906 16.4375 78.691406 16.96875 C 70.40625 26.910156 76.164062 48.242188 50.148438 43.800781 C 51.527344 31.335938 57.761719 22.507812 70.867188 18.824219 " fill-opacity="1" fill-rule="evenodd"/></g></g></g><g clip-path="url(#7e441afc1b)"><g clip-path="url(#2bb0f52efa)"><g clip-path="url(#6301125ec0)"><path fill="#00bf63" d="M 26.410156 30.5 C 37.734375 29.257812 44.371094 33.910156 46.046875 44.800781 C 46.066406 44.9375 46.269531 44.929688 46.277344 44.789062 C 46.402344 41.15625 45.960938 37.910156 44.753906 35.171875 C 40.777344 26.128906 29.214844 26.105469 21.414062 29.921875 C 21.027344 30.109375 21 30.636719 21.363281 30.875 C 28.222656 35.265625 28.816406 49.164062 43.582031 41.558594 C 40.394531 34.335938 34.976562 30.226562 26.410156 30.5 " fill-opacity="1" fill-rule="evenodd"/></g></g></g><g clip-path="url(#b0dd327ac9)"><g clip-path="url(#c2b81c8b57)"><path fill="#e7191f" d="M 41.382812 52.539062 L 51.941406 52.539062 L 51.941406 62.777344 L 41.382812 62.777344 Z M 41.382812 52.539062 " fill-opacity="1" fill-rule="nonzero"/></g></g><g clip-path="url(#e1f16fa6a0)"><g clip-path="url(#a478093be7)"><path fill="#e7191f" d="M 43.492188 50.820312 L 54.050781 50.820312 L 54.050781 61.054688 L 43.492188 61.054688 Z M 43.492188 50.820312 " fill-opacity="1" fill-rule="nonzero"/><path fill="#e7191f" d="M 43.492188 50.820312 L 54.050781 50.820312 L 54.050781 61.054688 L 43.492188 61.054688 Z M 43.492188 50.820312 " fill-opacity="1" fill-rule="nonzero"/></g></g><g clip-path="url(#0d705634bd)"><g clip-path="url(#74d9ddc19c)"><path fill="#e7191f" d="M 43.492188 52.304688 L 54.050781 52.304688 L 54.050781 62.542969 L 43.492188 62.542969 Z M 43.492188 52.304688 " fill-opacity="1" fill-rule="nonzero"/><path fill="#e7191f" d="M 43.492188 52.304688 L 54.050781 52.304688 L 54.050781 62.542969 L 43.492188 62.542969 Z M 43.492188 52.304688 " fill-opacity="1" fill-rule="nonzero"/><path fill="#e7191f" d="M 43.492188 52.304688 L 54.050781 52.304688 L 54.050781 62.542969 L 43.492188 62.542969 Z M 43.492188 52.304688 " fill-opacity="1" fill-rule="nonzero"/><path fill="#e7191f" d="M 43.492188 52.304688 L 54.050781 52.304688 L 54.050781 62.542969 L 43.492188 62.542969 Z M 43.492188 52.304688 " fill-opacity="1" fill-rule="nonzero"/><path fill="#e7191f" d="M 43.492188 52.304688 L 54.050781 52.304688 L 54.050781 62.542969 L 43.492188 62.542969 Z M 43.492188 52.304688 " fill-opacity="1" fill-rule="nonzero"/></g></g><g clip-path="url(#a83f30b00f)"><g clip-path="url(#2412575aa7)"><path fill="#e7191f" d="M 40.992188 51.835938 L 52.097656 51.835938 L 52.097656 62.855469 L 40.992188 62.855469 Z M 40.992188 51.835938 " fill-opacity="1" fill-rule="nonzero"/></g></g><g clip-path="url(#e55bedd453)"><g clip-path="url(#cc78b8278a)"><path fill="#e7191f" d="M 41.070312 52.304688 L 51.628906 52.304688 L 51.628906 62.542969 L 41.070312 62.542969 Z M 41.070312 52.304688 " fill-opacity="1" fill-rule="nonzero"/><path fill="#e7191f" d="M 41.070312 52.304688 L 51.628906 52.304688 L 51.628906 62.542969 L 41.070312 62.542969 Z M 41.070312 52.304688 " fill-opacity="1" fill-rule="nonzero"/><path fill="#e7191f" d="M 41.070312 52.304688 L 51.628906 52.304688 L 51.628906 62.542969 L 41.070312 62.542969 Z M 41.070312 52.304688 " fill-opacity="1" fill-rule="nonzero"/><path fill="#e7191f" d="M 41.070312 52.304688 L 51.628906 52.304688 L 51.628906 62.542969 L 41.070312 62.542969 Z M 41.070312 52.304688 " fill-opacity="1" fill-rule="nonzero"/></g></g><g clip-path="url(#8ef4250c35)"><g clip-path="url(#09a02ba38a)"><path fill="#e7191f" d="M 40.757812 52.074219 L 51.777344 52.074219 L 51.777344 63.175781 L 40.757812 63.175781 Z M 40.757812 52.074219 " fill-opacity="1" fill-rule="nonzero"/></g></g><g clip-path="url(#d1460308f5)"><g clip-path="url(#cc7b5535b7)"><path fill="#a20612" d="M 38.246094 49.320312 L 54.835938 49.320312 L 54.835938 65.917969 L 38.246094 65.917969 Z M 38.246094 49.320312 " fill-opacity="1" fill-rule="nonzero"/></g></g></svg>