<svg xmlns="http://www.w3.org/2000/svg" xmlns:xlink="http://www.w3.org/1999/xlink" width="500" zoomAndPan="magnify" viewBox="0 0 375 149.999998" height="200" preserveAspectRatio="xMidYMid meet" version="1.0"><defs><clipPath id="2b5ed98f42"><path d="M 38 25 L 66.640625 25 L 66.640625 54.757812 L 38 54.757812 Z M 38 25 " clip-rule="nonzero"/></clipPath><clipPath id="2ee2319da7"><path d="M 34.171875 27.765625 L 65.476562 21.375 L 71.609375 51.398438 L 40.304688 57.789062 Z M 34.171875 27.765625 " clip-rule="nonzero"/></clipPath><clipPath id="5845387422"><path d="M 34.171875 27.765625 L 65.476562 21.375 L 71.609375 51.398438 L 40.304688 57.789062 Z M 34.171875 27.765625 " clip-rule="nonzero"/></clipPath><clipPath id="48102d4197"><path d="M 18 35 L 39.390625 35 L 39.390625 50 L 18 50 Z M 18 35 " clip-rule="nonzero"/></clipPath><clipPath id="84a43a4c64"><path d="M 17.703125 34.917969 L 37.808594 32.804688 L 39.785156 51.605469 L 19.683594 53.722656 Z M 17.703125 34.917969 " clip-rule="nonzero"/></clipPath><clipPath id="b6c8657ab0"><path d="M 37.753906 32.808594 L 17.65625 34.925781 L 19.632812 53.726562 L 39.734375 51.613281 Z M 37.753906 32.808594 " clip-rule="nonzero"/></clipPath><clipPath id="d59941880d"><path d="M 37.433594 58.6875 L 41.171875 58.6875 L 41.171875 61.863281 L 37.433594 61.863281 Z M 37.433594 58.6875 " clip-rule="nonzero"/></clipPath><clipPath id="f3f89b1f1c"><path d="M 41.160156 59.808594 C 39.464844 62.414062 37.96875 61.960938 37.640625 61.4375 C 37.246094 60.851562 37.574219 59.285156 38.09375 58.828125 C 38.617188 58.4375 40.640625 59.023438 40.640625 59.023438 " clip-rule="nonzero"/></clipPath><clipPath id="a2826ac8fa"><path d="M 39.195312 57.257812 L 42.933594 57.257812 L 42.933594 60.390625 L 39.195312 60.390625 Z M 39.195312 57.257812 " clip-rule="nonzero"/></clipPath><clipPath id="8623885bf7"><path d="M 42.921875 58.375 C 41.226562 60.980469 39.726562 60.523438 39.402344 59.9375 C 39.007812 59.417969 39.335938 57.785156 39.855469 57.394531 C 40.378906 57.003906 42.402344 57.59375 42.402344 57.59375 " clip-rule="nonzero"/></clipPath><clipPath id="86e2834127"><path d="M 39.195312 58.460938 L 42.933594 58.460938 L 42.933594 61.632812 L 39.195312 61.632812 Z M 39.195312 58.460938 " clip-rule="nonzero"/></clipPath><clipPath id="5609e55518"><path d="M 42.921875 59.609375 C 41.226562 62.222656 39.726562 61.761719 39.402344 61.179688 C 39.007812 60.652344 39.335938 59.023438 39.855469 58.636719 C 40.378906 58.242188 42.402344 58.761719 42.402344 58.761719 " clip-rule="nonzero"/></clipPath><clipPath id="7e45fe9100"><path d="M 37.296875 58.1875 L 41.3125 58.1875 L 41.3125 62.167969 L 37.296875 62.167969 Z M 37.296875 58.1875 " clip-rule="nonzero"/></clipPath><clipPath id="436fd66fae"><path d="M 39.269531 62.15625 C 37.3125 60.851562 37.246094 59.9375 37.445312 59.417969 C 37.640625 58.960938 38.289062 58.375 38.816406 58.242188 C 39.335938 58.113281 40.183594 58.375 40.574219 58.761719 C 40.964844 59.089844 41.292969 59.9375 41.160156 60.457031 C 41.09375 61.046875 40.574219 61.699219 40.050781 61.960938 C 39.597656 62.15625 38.683594 62.15625 38.226562 61.828125 C 37.769531 61.566406 37.378906 60.785156 37.3125 60.265625 C 37.246094 59.871094 37.378906 59.417969 37.640625 59.089844 C 37.96875 58.699219 38.683594 58.242188 39.269531 58.242188 C 39.792969 58.175781 40.574219 58.570312 40.898438 58.960938 C 41.226562 59.351562 41.355469 59.871094 41.292969 60.332031 C 41.292969 60.71875 41.03125 61.308594 40.707031 61.566406 C 40.378906 61.894531 39.402344 62.15625 39.402344 62.15625 " clip-rule="nonzero"/></clipPath><clipPath id="2d3e579e2f"><path d="M 37.238281 58.460938 L 40.976562 58.460938 L 40.976562 61.632812 L 37.238281 61.632812 Z M 37.238281 58.460938 " clip-rule="nonzero"/></clipPath><clipPath id="b56fb77993"><path d="M 40.964844 59.609375 C 39.269531 62.222656 37.707031 61.761719 37.378906 61.179688 C 37.054688 60.652344 37.378906 59.023438 37.835938 58.636719 C 38.355469 58.242188 40.445312 58.761719 40.445312 58.761719 " clip-rule="nonzero"/></clipPath><clipPath id="de7781f3e5"><path d="M 37.09375 58.414062 L 41.046875 58.414062 L 41.046875 62.4375 L 37.09375 62.4375 Z M 37.09375 58.414062 " clip-rule="nonzero"/></clipPath><clipPath id="dd8398ebc0"><path d="M 41.03125 60.457031 C 39.726562 62.347656 38.816406 62.480469 38.355469 62.285156 C 37.835938 62.089844 37.246094 61.371094 37.121094 60.851562 C 37.054688 60.332031 37.246094 59.484375 37.640625 59.089844 C 38.03125 58.699219 38.878906 58.4375 39.402344 58.503906 C 39.921875 58.570312 40.640625 59.15625 40.832031 59.609375 C 41.09375 60.132812 41.03125 60.980469 40.769531 61.4375 C 40.445312 61.894531 39.664062 62.347656 39.136719 62.414062 C 38.75 62.480469 38.289062 62.347656 37.96875 62.089844 C 37.574219 61.761719 37.121094 60.980469 37.121094 60.457031 C 37.054688 60.003906 37.246094 59.484375 37.507812 59.089844 C 37.835938 58.761719 38.289062 58.4375 38.75 58.4375 C 39.269531 58.375 40.117188 58.636719 40.445312 58.960938 C 40.832031 59.285156 41.03125 60.265625 41.03125 60.265625 " clip-rule="nonzero"/></clipPath><clipPath id="dc7af5aab8"><path d="M 32.414062 53.535156 L 46.257812 53.535156 L 46.257812 67.382812 L 32.414062 67.382812 Z M 32.414062 53.535156 " clip-rule="nonzero"/></clipPath><clipPath id="1a1f20ddd6"><path d="M 39.335938 53.535156 C 35.511719 53.535156 32.414062 56.632812 32.414062 60.457031 C 32.414062 64.28125 35.511719 67.382812 39.335938 67.382812 C 43.160156 67.382812 46.257812 64.28125 46.257812 60.457031 C 46.257812 56.632812 43.160156 53.535156 39.335938 53.535156 Z M 39.335938 53.535156 " clip-rule="nonzero"/></clipPath></defs><path fill="#000000" d="M 14.382812 52.933594 L 14.382812 96.015625 L 32.917969 96.015625 L 32.917969 106.789062 L 2.101562 106.789062 L 2.101562 52.933594 Z M 14.382812 52.933594 " fill-opacity="1" fill-rule="nonzero"/><path fill="#000000" d="M 34.550781 54.636719 C 35.902344 53.285156 37.515625 52.605469 39.378906 52.605469 C 41.246094 52.605469 42.855469 53.285156 44.210938 54.636719 C 45.5625 55.980469 46.242188 57.589844 46.242188 59.464844 C 46.242188 61.332031 45.5625 62.945312 44.210938 64.296875 C 42.855469 65.640625 41.246094 66.3125 39.378906 66.3125 C 37.515625 66.3125 35.902344 65.640625 34.550781 64.296875 C 33.195312 62.945312 32.519531 61.332031 32.519531 59.464844 C 32.519531 57.589844 33.195312 55.980469 34.550781 54.636719 Z M 33.4375 73.304688 L 33.4375 106.789062 L 44.996094 106.789062 L 44.996094 73.304688 Z M 33.4375 73.304688 " fill-opacity="1" fill-rule="nonzero"/><path fill="#000000" d="M 50.761719 102.8125 C 47.050781 99.503906 45.195312 95.261719 45.195312 90.085938 C 45.195312 84.90625 47.128906 80.648438 50.992188 77.316406 C 54.863281 73.988281 59.660156 72.320312 65.371094 72.320312 C 70.976562 72.320312 75.710938 74 79.566406 77.347656 C 83.417969 80.699219 85.347656 84.945312 85.347656 90.085938 C 85.347656 95.222656 83.464844 99.449219 79.699219 102.777344 C 75.929688 106.109375 71.152344 107.773438 65.371094 107.773438 C 59.351562 107.773438 54.484375 106.117188 50.761719 102.8125 Z M 59.703125 84.40625 C 58.207031 85.878906 57.460938 87.773438 57.460938 90.085938 C 57.460938 92.394531 58.171875 94.277344 59.605469 95.738281 C 61.046875 97.191406 62.945312 97.914062 65.304688 97.914062 C 67.5625 97.914062 69.417969 97.179688 70.871094 95.703125 C 72.332031 94.222656 73.066406 92.34375 73.066406 90.070312 C 73.066406 87.769531 72.3125 85.878906 70.804688 84.40625 C 69.308594 82.921875 67.472656 82.179688 65.304688 82.179688 C 63.078125 82.179688 61.210938 82.921875 59.703125 84.40625 Z M 59.703125 84.40625 " fill-opacity="1" fill-rule="nonzero"/><path fill="#000000" d="M 94.089844 63.707031 L 94.089844 52.933594 L 131.949219 52.933594 L 131.949219 63.707031 L 119.160156 63.707031 L 119.160156 106.789062 L 106.878906 106.789062 L 106.878906 63.707031 Z M 94.089844 63.707031 " fill-opacity="1" fill-rule="nonzero"/><path fill="#000000" d="M 164.71875 91.644531 L 140.433594 91.644531 C 140.433594 93.992188 141.191406 95.734375 142.710938 96.867188 C 144.238281 98.003906 145.894531 98.570312 147.6875 98.570312 C 149.554688 98.570312 151.03125 98.320312 152.125 97.816406 C 153.214844 97.316406 154.453125 96.324219 155.84375 94.835938 L 164.210938 99.027344 C 160.726562 104.859375 154.933594 107.773438 146.835938 107.773438 C 141.792969 107.773438 137.460938 106.046875 133.851562 102.582031 C 130.234375 99.121094 128.429688 94.960938 128.429688 90.085938 C 128.429688 85.207031 130.234375 81.027344 133.851562 77.542969 C 137.460938 74.066406 141.792969 72.320312 146.835938 72.320312 C 152.140625 72.320312 156.457031 73.855469 159.789062 76.921875 C 163.117188 79.992188 164.78125 84.371094 164.78125 90.070312 C 164.78125 90.859375 164.757812 91.382812 164.71875 91.644531 Z M 140.761719 85.242188 L 153.5 85.242188 C 153.238281 83.503906 152.550781 82.171875 151.4375 81.230469 C 150.324219 80.292969 148.898438 79.820312 147.164062 79.820312 C 145.25 79.820312 143.730469 80.324219 142.59375 81.328125 C 141.457031 82.335938 140.847656 83.636719 140.761719 85.242188 Z M 140.761719 85.242188 " fill-opacity="1" fill-rule="nonzero"/><path fill="#000000" d="M 182.488281 81.785156 C 180.300781 81.785156 178.425781 82.597656 176.851562 84.210938 C 175.289062 85.8125 174.511719 87.746094 174.511719 90.007812 C 174.511719 92.324219 175.289062 94.289062 176.851562 95.902344 C 178.425781 97.503906 180.300781 98.308594 182.488281 98.308594 C 183.523438 98.308594 184.507812 98.175781 185.449219 97.914062 C 186.386719 97.652344 187.074219 97.390625 187.511719 97.128906 L 188.101562 96.734375 L 192.015625 104.761719 C 191.710938 104.980469 191.285156 105.25 190.738281 105.578125 C 190.191406 105.90625 188.945312 106.355469 187.007812 106.921875 C 185.074219 107.484375 183 107.773438 180.785156 107.773438 C 175.859375 107.773438 171.535156 106.046875 167.8125 102.582031 C 164.101562 99.121094 162.246094 94.976562 162.246094 90.136719 C 162.246094 85.269531 164.101562 81.082031 167.8125 77.578125 C 171.535156 74.074219 175.859375 72.320312 180.785156 72.320312 C 183 72.320312 185.039062 72.582031 186.90625 73.105469 C 188.78125 73.632812 190.117188 74.152344 190.902344 74.664062 L 192.015625 75.449219 L 188.101562 83.359375 C 186.660156 82.308594 184.789062 81.785156 182.488281 81.785156 Z M 182.488281 81.785156 " fill-opacity="1" fill-rule="nonzero"/><path fill="#000000" d="M 191.160156 106.789062 L 191.160156 50.640625 L 202.71875 50.640625 L 202.71875 76.824219 L 202.851562 76.824219 C 205.851562 73.824219 209.046875 72.320312 212.445312 72.320312 C 214.09375 72.320312 215.738281 72.542969 217.375 72.976562 C 219.011719 73.414062 220.578125 74.089844 222.074219 75.007812 C 223.582031 75.914062 224.796875 77.207031 225.726562 78.886719 C 226.664062 80.558594 227.132812 82.503906 227.132812 84.71875 L 227.132812 106.789062 L 215.574219 106.789062 L 215.574219 87.859375 C 215.574219 86.117188 215.015625 84.59375 213.902344 83.292969 C 212.796875 81.980469 211.355469 81.328125 209.582031 81.328125 C 207.832031 81.328125 206.25 82.007812 204.832031 83.359375 C 203.421875 84.699219 202.71875 86.203125 202.71875 87.859375 L 202.71875 106.789062 Z M 191.160156 106.789062 " fill-opacity="1" fill-rule="nonzero"/><g clip-path="url(#2b5ed98f42)"><g clip-path="url(#2ee2319da7)"><g clip-path="url(#5845387422)"><path fill="#00bf63" d="M 59.632812 28.089844 C 44.820312 31.042969 38.289062 39.570312 40.53125 54.011719 C 40.558594 54.195312 40.296875 54.253906 40.234375 54.082031 C 38.621094 49.546875 37.882812 45.261719 38.3125 41.320312 C 39.726562 28.304688 54.332031 23.652344 65.714844 25.355469 C 66.28125 25.441406 66.527344 26.097656 66.160156 26.539062 C 59.246094 34.835938 64.054688 52.632812 42.34375 48.929688 C 43.496094 38.527344 48.699219 31.164062 59.632812 28.089844 " fill-opacity="1" fill-rule="evenodd"/></g></g></g><g clip-path="url(#48102d4197)"><g clip-path="url(#84a43a4c64)"><g clip-path="url(#b6c8657ab0)"><path fill="#00bf63" d="M 22.539062 37.832031 C 31.988281 36.796875 37.527344 40.675781 38.921875 49.765625 C 38.9375 49.878906 39.109375 49.871094 39.113281 49.753906 C 39.21875 46.722656 38.851562 44.011719 37.84375 41.730469 C 34.523438 34.183594 24.878906 34.164062 18.371094 37.347656 C 18.046875 37.503906 18.023438 37.945312 18.324219 38.144531 C 24.050781 41.804688 24.542969 53.402344 36.867188 47.058594 C 34.207031 41.03125 29.6875 37.601562 22.539062 37.832031 " fill-opacity="1" fill-rule="evenodd"/></g></g></g><g clip-path="url(#d59941880d)"><g clip-path="url(#f3f89b1f1c)"><path fill="#e7191f" d="M 35.03125 56.21875 L 43.84375 56.21875 L 43.84375 64.765625 L 35.03125 64.765625 Z M 35.03125 56.21875 " fill-opacity="1" fill-rule="nonzero"/></g></g><g clip-path="url(#a2826ac8fa)"><g clip-path="url(#8623885bf7)"><path fill="#e7191f" d="M 36.792969 54.789062 L 45.601562 54.789062 L 45.601562 63.328125 L 36.792969 63.328125 Z M 36.792969 54.789062 " fill-opacity="1" fill-rule="nonzero"/><path fill="#e7191f" d="M 36.792969 54.789062 L 45.601562 54.789062 L 45.601562 63.328125 L 36.792969 63.328125 Z M 36.792969 54.789062 " fill-opacity="1" fill-rule="nonzero"/></g></g><g clip-path="url(#86e2834127)"><g clip-path="url(#5609e55518)"><path fill="#e7191f" d="M 36.792969 56.023438 L 45.601562 56.023438 L 45.601562 64.566406 L 36.792969 64.566406 Z M 36.792969 56.023438 " fill-opacity="1" fill-rule="nonzero"/><path fill="#e7191f" d="M 36.792969 56.023438 L 45.601562 56.023438 L 45.601562 64.566406 L 36.792969 64.566406 Z M 36.792969 56.023438 " fill-opacity="1" fill-rule="nonzero"/><path fill="#e7191f" d="M 36.792969 56.023438 L 45.601562 56.023438 L 45.601562 64.566406 L 36.792969 64.566406 Z M 36.792969 56.023438 " fill-opacity="1" fill-rule="nonzero"/><path fill="#e7191f" d="M 36.792969 56.023438 L 45.601562 56.023438 L 45.601562 64.566406 L 36.792969 64.566406 Z M 36.792969 56.023438 " fill-opacity="1" fill-rule="nonzero"/><path fill="#e7191f" d="M 36.792969 56.023438 L 45.601562 56.023438 L 45.601562 64.566406 L 36.792969 64.566406 Z M 36.792969 56.023438 " fill-opacity="1" fill-rule="nonzero"/></g></g><g clip-path="url(#7e45fe9100)"><g clip-path="url(#436fd66fae)"><path fill="#e7191f" d="M 34.703125 55.636719 L 43.972656 55.636719 L 43.972656 64.828125 L 34.703125 64.828125 Z M 34.703125 55.636719 " fill-opacity="1" fill-rule="nonzero"/></g></g><g clip-path="url(#2d3e579e2f)"><g clip-path="url(#b56fb77993)"><path fill="#e7191f" d="M 34.769531 56.023438 L 43.582031 56.023438 L 43.582031 64.566406 L 34.769531 64.566406 Z M 34.769531 56.023438 " fill-opacity="1" fill-rule="nonzero"/><path fill="#e7191f" d="M 34.769531 56.023438 L 43.582031 56.023438 L 43.582031 64.566406 L 34.769531 64.566406 Z M 34.769531 56.023438 " fill-opacity="1" fill-rule="nonzero"/><path fill="#e7191f" d="M 34.769531 56.023438 L 43.582031 56.023438 L 43.582031 64.566406 L 34.769531 64.566406 Z M 34.769531 56.023438 " fill-opacity="1" fill-rule="nonzero"/><path fill="#e7191f" d="M 34.769531 56.023438 L 43.582031 56.023438 L 43.582031 64.566406 L 34.769531 64.566406 Z M 34.769531 56.023438 " fill-opacity="1" fill-rule="nonzero"/></g></g><g clip-path="url(#de7781f3e5)"><g clip-path="url(#dd8398ebc0)"><path fill="#e7191f" d="M 34.507812 55.832031 L 43.703125 55.832031 L 43.703125 65.097656 L 34.507812 65.097656 Z M 34.507812 55.832031 " fill-opacity="1" fill-rule="nonzero"/></g></g><g clip-path="url(#dc7af5aab8)"><g clip-path="url(#1a1f20ddd6)"><path fill="#a20612" d="M 32.414062 53.535156 L 46.257812 53.535156 L 46.257812 67.382812 L 32.414062 67.382812 Z M 32.414062 53.535156 " fill-opacity="1" fill-rule="nonzero"/></g></g></svg>